<svg viewBox="0 0 4200 700" xmlns="http://www.w3.org/2000/svg" width="4200" height="700">
  <defs>
    <linearGradient id="bg" x1="0%" y1="0%" x2="100%" y2="100%">
      <stop offset="0%" stop-color="#1a3356"/>
      <stop offset="100%" stop-color="#2b4c7e"/>
    </linearGradient>
  </defs>

  <!-- Background -->
  <rect width="4200" height="700" fill="url(#bg)"/>

  <!-- Decorative nested squares — large, right side -->
  <g opacity="0.10" transform="translate(3200, 350)">
    <rect x="-320" y="-320" width="640" height="640" fill="none" stroke="#ffffff" stroke-width="8"/>
    <rect x="-240" y="-240" width="480" height="480" fill="none" stroke="#ffffff" stroke-width="6"/>
    <rect x="-160" y="-160" width="320" height="320" fill="none" stroke="#ffffff" stroke-width="4"/>
    <rect x="-90"  y="-90"  width="180" height="180" fill="none" stroke="#ffffff" stroke-width="3"/>
    <rect x="-45"  y="-45"  width="90"  height="90"  fill="#5b8abf"/>
  </g>

  <!-- Decorative nested squares — medium, far right -->
  <g opacity="0.06" transform="translate(3750, 160)">
    <rect x="-180" y="-180" width="360" height="360" fill="none" stroke="#ffffff" stroke-width="5"/>
    <rect x="-120" y="-120" width="240" height="240" fill="none" stroke="#ffffff" stroke-width="3"/>
    <rect x="-55"  y="-55"  width="110" height="110" fill="#5b8abf"/>
  </g>

  <!-- Decorative nested squares — small, top-left -->
  <g opacity="0.06" transform="translate(180, 110)">
    <rect x="-85" y="-85" width="170" height="170" fill="none" stroke="#ffffff" stroke-width="4"/>
    <rect x="-50" y="-50" width="100" height="100" fill="none" stroke="#ffffff" stroke-width="3"/>
    <rect x="-24" y="-24" width="48"  height="48"  fill="#5b8abf"/>
  </g>

  <!-- Logo mark + text — centered -->
  <g transform="translate(1050, 0)">
    <g transform="translate(185, 350)">
      <rect x="-150" y="-150" width="300" height="300" fill="none" stroke="#ffffff" stroke-width="6"/>
      <rect x="-112" y="-112" width="224" height="224" fill="none" stroke="#ffffff" stroke-width="4.5"/>
      <rect x="-75"  y="-75"  width="150" height="150" fill="none" stroke="#ffffff" stroke-width="3.5"/>
      <rect x="-45"  y="-45"  width="90"  height="90"  fill="#5b8abf"/>
      <line x1="0" y1="-150" x2="0" y2="-165" stroke="#ffffff" stroke-width="5"/>
      <line x1="0" y1="150"  x2="0" y2="165"  stroke="#ffffff" stroke-width="5"/>
      <line x1="-150" y1="0" x2="-165" y2="0" stroke="#ffffff" stroke-width="5"/>
      <line x1="150"  y1="0" x2="165"  y2="0" stroke="#ffffff" stroke-width="5"/>
    </g>

    <!-- Wordmark: RESILIENCE -->
    <text
      x="430" y="320"
      font-family="'IBM Plex Mono', 'Courier New', monospace"
      font-size="190"
      font-weight="700"
      letter-spacing="35"
      fill="#ffffff"
    >RESILIENCE</text>

    <!-- Tagline -->
    <text
      x="438" y="450"
      font-family="'IBM Plex Mono', 'Courier New', monospace"
      font-size="58"
      font-weight="400"
      letter-spacing="20"
      fill="#a8c0de"
    >SOFTWARE &amp; STRATEGY STUDIO</text>
  </g>

  <!-- Subtle bottom rule -->
  <rect x="0" y="692" width="4200" height="8" fill="#5b8abf" opacity="0.5"/>
</svg>
